<svg width="45" height="46" viewBox="0 0 45 46" fill="none" xmlns="http://www.w3.org/2000/svg">
<g clip-path="url(#clip0_23_429)">
<path d="M30.0495 24.2398C28.0275 21.0292 24.5837 19.1121 20.8372 19.1121C17.0906 19.1121 13.6469 21.0292 11.6251 24.2398L6.75276 31.9763C5.94435 33.2598 5.57134 34.7428 5.67385 36.2638C5.77636 37.7852 6.34512 39.202 7.31844 40.3619C8.29243 41.5207 9.57944 42.3128 11.0403 42.6527C12.5011 42.9926 13.9986 42.8474 15.3706 42.2336L15.4625 42.1921C18.9149 40.6784 22.8599 40.6923 26.3033 42.2336C27.1916 42.6311 28.1327 42.8321 29.0824 42.8321C29.5987 42.8321 30.1181 42.7724 30.6327 42.6531C32.0935 42.3135 33.3805 41.5214 34.3549 40.3622C35.3285 39.2034 35.8976 37.7863 36.0005 36.2645C36.1033 34.7428 35.7303 33.2601 34.9219 31.976L30.0495 24.2398Z" fill="white"/>
<path d="M8.06526 24.2298C9.51477 23.6631 10.616 22.4743 11.1659 20.882C11.6894 19.3669 11.6465 17.6563 11.0449 16.0651C10.4428 14.475 9.34781 13.1769 7.96138 12.4096C6.50501 11.6039 4.905 11.4727 3.45788 12.0404C0.546518 13.1797 -0.789515 16.8416 0.480008 20.2051C1.49412 22.8822 3.85935 24.5721 6.25063 24.5721C6.86122 24.5721 7.47353 24.4619 8.06526 24.2298Z" fill="white"/>
<path d="M17.5194 18.1687C21.1589 18.1687 24.12 14.735 24.12 10.5145C24.12 6.29298 21.1589 2.85864 17.5194 2.85864C13.8802 2.85864 10.9194 6.29298 10.9194 10.5145C10.9194 14.735 13.8802 18.1687 17.5194 18.1687Z" fill="white"/>
<path d="M28.9188 20.0491H28.9192C29.479 20.2382 30.0502 20.3286 30.6189 20.3286C33.2732 20.3286 35.8599 18.3623 36.8469 15.3404C37.4153 13.6009 37.378 11.7616 36.7417 10.1617C36.0759 8.48676 34.842 7.27103 33.267 6.73819C31.6917 6.20535 29.9881 6.42763 28.4697 7.3635C27.0192 8.25751 25.9077 9.70808 25.3399 11.4476C24.1417 15.1171 25.7472 18.9758 28.9188 20.0491Z" fill="white"/>
<path d="M42.8188 19.1558L42.8177 19.1548C40.3078 17.2677 36.5541 18.0856 34.4494 20.9791C32.3468 23.8739 32.6756 27.7657 35.1817 29.6542C36.0957 30.3434 37.1757 30.6728 38.281 30.6728C40.2074 30.6728 42.2116 29.672 43.5514 27.8317C45.6537 24.9368 45.3252 21.045 42.8188 19.1558Z" fill="white"/>
</g>
<defs>
<clipPath id="clip0_23_429">
<rect width="44.9362" height="45.7371" fill="white"/>
</clipPath>
</defs>
</svg>
