<svg width="46" height="46" viewBox="0 0 46 46" fill="none" xmlns="http://www.w3.org/2000/svg">
<g clip-path="url(#clip0_23_376)">
<path d="M30.7612 24.3792C28.6913 21.1501 25.166 19.222 21.3308 19.222C17.4956 19.222 13.9703 21.1501 11.9007 24.3792L6.91297 32.1602C6.08542 33.451 5.70359 34.9426 5.80852 36.4724C5.91346 38.0025 6.49569 39.4274 7.49204 40.5939C8.48909 41.7594 9.80657 42.5561 11.302 42.8979C12.7974 43.2398 14.3303 43.0938 15.7349 42.4764L15.8289 42.4347C19.363 40.9123 23.4014 40.9263 26.9264 42.4764C27.8357 42.8762 28.799 43.0783 29.7712 43.0783C30.2997 43.0783 30.8314 43.0183 31.3582 42.8983C32.8536 42.5568 34.1711 41.7602 35.1685 40.5943C36.1652 39.4288 36.7478 38.0036 36.853 36.4731C36.9583 34.9426 36.5765 33.4514 35.749 32.1599L30.7612 24.3792Z" fill="#E9473C"/>
<path d="M8.25619 24.3691C9.74001 23.7991 10.8673 22.6034 11.4302 21.002C11.9661 19.4782 11.9222 17.7578 11.3063 16.1575C10.69 14.5582 9.5691 13.2527 8.14985 12.4809C6.659 11.6706 5.02111 11.5386 3.53974 12.1096C0.559455 13.2555 -0.808205 16.9384 0.491371 20.3212C1.52949 23.0137 3.95071 24.7133 6.3986 24.7133C7.02364 24.7133 7.65044 24.6024 8.25619 24.3691Z" fill="#E9473C"/>
<path d="M17.9339 18.273C21.6596 18.273 24.6908 14.8197 24.6908 10.5749C24.6908 6.32907 21.6596 2.875 17.9339 2.875C14.2086 2.875 11.1777 6.32907 11.1777 10.5749C11.1777 14.8197 14.2086 18.273 17.9339 18.273Z" fill="#E9473C"/>
<path d="M29.6033 20.1643C30.1764 20.3545 30.7614 20.4454 31.3436 20.4454C34.0607 20.4454 36.7087 18.4678 37.719 15.4286C38.3009 13.6791 38.2627 11.8292 37.6113 10.2201C36.9298 8.53551 35.6667 7.31279 34.0544 6.77689C32.4418 6.24099 30.6979 6.46454 29.1435 7.4058C27.6586 8.30494 26.5209 9.76384 25.9397 11.5133C24.7131 15.204 26.3566 19.0848 29.6033 20.1643Z" fill="#E9473C"/>
<path d="M43.8324 19.2659L43.8313 19.2648C41.262 17.3669 37.4194 18.1895 35.2649 21.0996C33.1126 24.0111 33.4491 27.9253 36.0146 29.8246C36.9502 30.5178 38.0557 30.8491 39.1872 30.8491C41.1592 30.8491 43.2108 29.8425 44.5824 27.9916C46.7344 25.0801 46.3982 21.1659 43.8324 19.2659Z" fill="#E9473C"/>
</g>
<defs>
<clipPath id="clip0_23_376">
<rect width="46" height="46" fill="white"/>
</clipPath>
</defs>
</svg>
